<?xml version="1.0" standalone="no"?>
<!DOCTYPE svg PUBLIC "-//W3C//DTD SVG 20010904//EN"
 "http://www.w3.org/TR/2001/REC-SVG-20010904/DTD/svg10.dtd">
<svg version="1.0" xmlns="http://www.w3.org/2000/svg"
 width="512.000000pt" height="512.000000pt" viewBox="0 0 512.000000 512.000000"
 preserveAspectRatio="xMidYMid meet">

<g transform="translate(0.000000,512.000000) scale(0.100000,-0.100000)"
fill="#000000" stroke="none">
<path d="M2495 4786 c-16 -8 -294 -279 -617 -602 -636 -639 -611 -609 -593
-701 9 -49 69 -109 118 -118 91 -17 75 -30 554 448 l443 441 2 -1436 c3 -1433
3 -1437 24 -1464 39 -53 71 -69 134 -69 63 0 95 16 134 69 21 27 21 31 24
1464 l2 1436 443 -441 c479 -478 463 -465 554 -448 49 9 109 69 118 118 18 92
43 62 -593 701 -337 338 -601 594 -619 602 -40 17 -89 17 -128 0z"/>
<path d="M415 1426 c-41 -18 -83 -69 -90 -109 -4 -18 -5 -196 -3 -397 l3 -365
34 -63 c38 -70 69 -100 145 -140 l51 -27 2005 0 2005 0 51 27 c76 40 107 70
145 140 l34 63 0 392 c0 380 -1 392 -21 419 -39 53 -71 69 -134 69 -63 0 -95
-16 -134 -69 -20 -26 -21 -42 -24 -377 l-3 -349 -1919 0 -1919 0 -3 349 c-3
335 -4 351 -24 377 -11 15 -32 37 -46 47 -33 25 -113 32 -153 13z"/>
</g>
</svg>
